<?xml version="1.0" standalone="no"?>
<!DOCTYPE svg PUBLIC "-//W3C//DTD SVG 20010904//EN"
 "http://www.w3.org/TR/2001/REC-SVG-20010904/DTD/svg10.dtd">
<svg version="1.0" xmlns="http://www.w3.org/2000/svg"
 width="569.000000pt" height="569.000000pt" viewBox="0 0 569.000000 569.000000"
 preserveAspectRatio="xMidYMid meet">
<metadata>
Created by potrace 1.14, written by Peter Selinger 2001-2017
</metadata>
<g transform="translate(0.000000,569.000000) scale(0.100000,-0.100000)"
fill="#000000" stroke="none">
<path d="M1648 4765 c-1 -1 -50 -5 -108 -8 -101 -6 -121 -8 -200 -22 -158 -27
-386 -114 -413 -156 -36 -56 -27 -123 22 -169 30 -28 116 -134 178 -220 34
-47 66 -90 70 -96 10 -12 16 -23 89 -144 74 -123 121 -188 181 -253 202 -219
460 -324 678 -277 48 10 60 14 123 43 46 21 107 65 152 109 l42 43 25 -30
c112 -134 266 -419 328 -606 35 -106 104 -361 110 -409 2 -14 13 -63 23 -110
11 -47 23 -105 26 -130 3 -25 10 -70 16 -100 26 -153 34 -258 35 -455 0 -250
-18 -388 -75 -555 -48 -142 -14 -209 134 -264 66 -25 201 -30 260 -10 56 19
112 79 123 131 4 21 7 148 7 283 1 283 -6 384 -40 620 -21 146 -24 163 -30
183 -3 11 -7 29 -9 40 -1 12 -8 50 -15 85 -10 48 -10 75 -1 121 6 33 14 76 16
95 10 76 94 387 114 421 3 6 6 16 7 23 3 14 105 223 131 267 29 48 55 87 81
122 l24 33 42 -24 c111 -65 247 -64 386 2 50 24 127 72 156 97 52 45 146 140
179 181 22 27 90 100 152 162 115 116 131 143 118 201 -9 41 -50 75 -139 116
-154 70 -328 108 -496 108 -172 1 -300 -45 -408 -147 -143 -133 -193 -295
-148 -476 6 -21 -3 -35 -44 -80 -129 -139 -275 -385 -344 -583 -6 -19 -26 -14
-26 6 0 6 -28 68 -62 137 -115 233 -275 454 -466 645 -75 74 -99 104 -96 120
7 34 7 177 0 235 -33 258 -172 460 -396 571 -123 61 -273 102 -416 114 -38 4
-74 8 -81 10 -6 2 -13 2 -15 0z"/>
</g>
</svg>
